<svg fill="none" height="93.792" width="240" xmlns="http://www.w3.org/2000/svg" viewBox="0 0.288 8.352 2.784"><path d="M5.953 2.434V0.288h0.431v2.146z" fill="#f7a600"/><g fill="#15192a"><path d="M0.925 3.072H0V0.926h0.888c0.431 0 0.683 0.235 0.683 0.603 0 0.238 -0.161 0.392 -0.273 0.443 0.133 0.06 0.304 0.196 0.304 0.482 0 0.401 -0.282 0.618 -0.677 0.618m-0.071 -1.772H0.431v0.494H0.853c0.183 0 0.286 -0.099 0.286 -0.247 0 -0.148 -0.102 -0.247 -0.286 -0.247zm0.028 0.871H0.432v0.528h0.45c0.196 0 0.288 -0.121 0.288 -0.265s-0.093 -0.262 -0.288 -0.262zm2.036 0.021v0.88h-0.428V2.192L1.825 0.926h0.469l0.413 0.865 0.407 -0.865h0.469zm1.887 0.88h-0.925V0.926h0.888c0.431 0 0.683 0.235 0.683 0.603 0 0.238 -0.161 0.392 -0.273 0.443 0.133 0.06 0.304 0.196 0.304 0.482 0 0.401 -0.282 0.618 -0.677 0.618m-0.071 -1.772h-0.422v0.494h0.422c0.183 0 0.286 -0.099 0.286 -0.247 0 -0.148 -0.102 -0.247 -0.286 -0.247m0.028 0.871h-0.45v0.528h0.45c0.196 0 0.289 -0.121 0.289 -0.265s-0.093 -0.262 -0.289 -0.262m3.014 -0.871V3.072h-0.431V1.299H6.766V0.926H8.352v0.374z"/></g></svg>