<svg height="42.912" viewBox="0 0 105.757 18.892" width="240" xmlns="http://www.w3.org/2000/svg"><path d="M21.345 5.274c-3.842 0 -6.844 2.916 -6.844 6.821s2.926 6.796 6.844 6.796 6.895 -2.941 6.895 -6.821c0 -3.854 -2.926 -6.796 -6.895 -6.796m0.026 10.803c-2.188 0 -3.791 -1.699 -3.791 -3.981 0 -2.308 1.577 -4.006 3.765 -4.006 2.214 0 3.816 1.724 3.816 4.006s-1.602 3.981 -3.79 3.981m7.708 -7.836h1.908v10.397h3.053V5.528H29.078zM6.818 8.089c1.603 0 2.875 0.989 3.358 2.46h3.231c-0.586 -3.144 -3.18 -5.274 -6.564 -5.274C3.002 5.274 0 8.191 0 12.096s2.926 6.796 6.844 6.796c3.307 0 5.953 -2.13 6.539 -5.3H10.176c-0.458 1.471 -1.73 2.485 -3.333 2.485 -2.214 0 -3.765 -1.699 -3.765 -3.981 0.001 -2.308 1.527 -4.007 3.74 -4.007m80.266 2.739 -2.239 -0.329c-1.068 -0.152 -1.832 -0.507 -1.832 -1.344 0 -0.913 0.993 -1.369 2.34 -1.369 1.476 0 2.417 0.634 2.621 1.673h2.951c-0.331 -2.637 -2.366 -4.184 -5.495 -4.184 -3.231 0 -5.368 1.648 -5.368 3.981 0 2.231 1.4 3.525 4.223 3.93l2.239 0.329c1.094 0.152 1.705 0.584 1.705 1.395 0 1.04 -1.068 1.471 -2.544 1.471 -1.807 0 -2.824 -0.735 -2.977 -1.851h-3.002c0.28 2.561 2.29 4.361 5.953 4.361 3.333 0 5.546 -1.522 5.546 -4.134 0 -2.333 -1.602 -3.55 -4.121 -3.93M32.513 0.127c-1.119 0 -1.959 0.811 -1.959 1.927s0.839 1.927 1.959 1.927c1.119 0 1.959 -0.811 1.959 -1.927s-0.84 -1.927 -1.959 -1.927m44.801 9.89c0 -2.84 -1.73 -4.741 -5.393 -4.741 -3.46 0 -5.393 1.75 -5.775 4.438h3.028c0.153 -1.04 0.967 -1.902 2.697 -1.902 1.552 0 2.316 0.684 2.316 1.522 0 1.091 -1.4 1.369 -3.13 1.547 -2.34 0.253 -5.241 1.065 -5.241 4.108 0 2.359 1.756 3.879 4.554 3.879 2.188 0 3.562 -0.913 4.249 -2.359 0.102 1.293 1.068 2.13 2.417 2.13h1.781v-2.713h-1.501v-5.909zm-3.002 3.297c0 1.75 -1.526 3.043 -3.384 3.043 -1.145 0 -2.112 -0.482 -2.112 -1.496 0 -1.293 1.552 -1.648 2.977 -1.8 1.374 -0.127 2.137 -0.431 2.519 -1.015zM58.107 5.274c-1.705 0 -3.13 0.71 -4.147 1.902V0h-3.053v18.638h3.002v-1.724c1.018 1.242 2.468 1.978 4.198 1.978 3.663 0 6.437 -2.891 6.437 -6.796s-2.824 -6.822 -6.437 -6.822m-0.458 10.803c-2.188 0 -3.791 -1.699 -3.791 -3.981s1.628 -4.006 3.816 -4.006c2.214 0 3.765 1.699 3.765 4.006 0 2.282 -1.602 3.981 -3.79 3.981M43.605 5.274c-1.984 0 -3.282 0.811 -4.045 1.953v-1.699h-3.028v13.11h3.053v-7.125c0 -2.004 1.272 -3.423 3.155 -3.423 1.756 0 2.849 1.242 2.849 3.043v7.506h3.053v-7.734c0.001 -3.298 -1.703 -5.63 -5.036 -5.63m62.152 6.391c0 -3.753 -2.748 -6.39 -6.437 -6.39 -3.918 0 -6.793 2.941 -6.793 6.821 0 4.083 3.079 6.796 6.844 6.796 3.18 0 5.674 -1.877 6.309 -4.539h-3.18c-0.458 1.166 -1.577 1.826 -3.079 1.826 -1.959 0 -3.435 -1.217 -3.765 -3.348h10.1v-1.166zm-9.923 -1.015c0.484 -1.826 1.858 -2.713 3.435 -2.713 1.73 0 3.053 0.989 3.358 2.713z" fill="#0052ff"/></svg>