<svg viewBox="0 0 240 48.001" xmlns="http://www.w3.org/2000/svg" width="240" height="48.001"><g fill="#f3ba2f"><path d="m14.68 20.169 9.323 -9.319 9.326 9.326 5.421 -5.425L24.002 0l-14.748 14.748z"/><path d="M-0.002 24.001 5.421 18.578l5.423 5.423L5.421 29.424z"/><path d="M14.68 27.831 24.002 37.154l9.326 -9.326 5.425 5.418 -0.004 0.004 -14.748 14.752 -14.748 -14.744 -0.008 -0.008z"/><path d="m37.151 24.002 5.423 -5.423 5.423 5.423 -5.423 5.423z"/><path d="M29.503 23.998 24.002 18.494 19.934 22.562l-0.47 0.466 -0.963 0.963 -0.008 0.008 0.008 0.011 5.501 5.497 5.501 -5.505 0.004 -0.004z"/><g transform="translate(.55)"><path d="M56.25 11.631h11.798q4.39 0 6.642 2.275A5.876 5.876 0 0 1 76.431 18.198v0.072a6.331 6.331 0 0 1 -0.269 1.926 5.914 5.914 0 0 1 -0.724 1.516 5.611 5.611 0 0 1 -1.046 1.183 6.824 6.824 0 0 1 -1.285 0.872 8.591 8.591 0 0 1 3.477 2.275q1.266 1.441 1.266 3.981v0.072a6.612 6.612 0 0 1 -0.671 3.056 5.952 5.952 0 0 1 -1.922 2.184 9.099 9.099 0 0 1 -3.014 1.308 16.189 16.189 0 0 1 -3.901 0.436h-12.09zm10.615 10.289a5.838 5.838 0 0 0 2.946 -0.637 2.199 2.199 0 0 0 1.084 -2.055v-0.072a2.248 2.248 0 0 0 -0.944 -1.945q-0.944 -0.671 -2.726 -0.671h-5.52v5.38zm1.49 10.255a5.384 5.384 0 0 0 2.919 -0.671 2.305 2.305 0 0 0 1.054 -2.093v-0.072a2.392 2.392 0 0 0 -0.982 -2.017q-0.978 -0.758 -3.162 -0.758h-6.479v5.611z"/><path d="M84.878 11.631h5.6v25.454h-5.6z"/><path d="M98.951 11.631h5.164L116.05 27.297V11.631h5.528v25.454h-4.766L104.486 20.905v16.181H98.951z"/><path d="M138.532 11.45H143.688l10.907 25.636h-5.846l-2.328 -5.71h-10.763l-2.328 5.71h-5.71zm5.892 14.983L141.034 18.175l-3.374 8.257z"/><path d="M160.65 11.631h5.164L177.74 27.297V11.631h5.528v25.454h-4.766l-12.325 -16.181v16.181h-5.528z"/><path d="M203.422 37.533a13.231 13.231 0 0 1 -5.202 -1.016A12.576 12.576 0 0 1 191.347 29.572a13.459 13.459 0 0 1 -0.982 -5.13v-0.072a13.209 13.209 0 0 1 3.712 -9.292 12.587 12.587 0 0 1 4.17 -2.836 13.611 13.611 0 0 1 5.38 -1.035 16.871 16.871 0 0 1 3.253 0.292 13.535 13.535 0 0 1 2.677 0.8 11.563 11.563 0 0 1 2.218 1.236 14.975 14.975 0 0 1 1.896 1.6l-3.56 4.11a13.535 13.535 0 0 0 -3.033 -2.112 7.772 7.772 0 0 0 -3.473 -0.758 7.044 7.044 0 0 0 -5.308 2.328A7.999 7.999 0 0 0 196.765 21.231a8.682 8.682 0 0 0 -0.542 3.075v0.072a8.796 8.796 0 0 0 0.542 3.071 8.075 8.075 0 0 0 1.516 2.544 6.999 6.999 0 0 0 5.308 2.366 7.772 7.772 0 0 0 3.689 -0.8 14.255 14.255 0 0 0 2.999 -2.184l3.564 3.602a18.198 18.198 0 0 1 -2.036 1.896 12.132 12.132 0 0 1 -2.309 1.437 11.98 11.98 0 0 1 -2.745 0.906 16.302 16.302 0 0 1 -3.329 0.318"/><path d="M220.449 11.631H239.606v4.982h-13.648v5.164h12.018v4.982h-11.999v5.346h13.819v4.982h-19.335z"/></g></g></svg>