<svg height="56.256" viewBox="0.003 0.002 77.352 18.131" width="240" xmlns="http://www.w3.org/2000/svg"><path d="M0.003 3.024v11.852c0.001 0.071 0.02 0.14 0.057 0.203 0.036 0.061 0.088 0.113 0.152 0.15l5.203 2.904V6.037z" fill="#60beff"/><path d="m16.22 0.002 5.203 2.904c0.063 0.036 0.115 0.088 0.152 0.15 0.036 0.062 0.056 0.132 0.057 0.204V15.11l-5.412 -3.021z" fill="#1a4199"/><path d="m5.406 18.132 5.412 -3.022 -5.412 -3.021zM5.614 0.12l10.606 5.926v6.043L0.003 3.024l5.203 -2.904a0.413 0.413 0 0 1 0.204 -0.055c0.071 0 0.142 0.019 0.204 0.055" fill="#3ca9e5"/><path d="M16.22 0.002 10.817 3.024l5.403 3.021zm5.412 15.108 -5.203 2.905a0.46 0.46 0 0 1 -0.417 0L5.406 12.089V6.037zM34.986 4.031a5.294 5.294 0 0 0 -2.898 0.946v-0.624c0 -0.051 -0.019 -0.099 -0.055 -0.134s-0.084 -0.055 -0.134 -0.055h-2.027a0.189 0.189 0 0 0 -0.19 0.189v5.043c-0.005 0.085 -0.005 0.171 0 0.255v5.148a0.313 0.313 0 0 0 0.303 0.313h1.8c0.04 0 0.081 -0.009 0.118 -0.024 0.037 -0.016 0.071 -0.039 0.099 -0.068 0.029 -0.03 0.051 -0.064 0.065 -0.102 0.015 -0.037 0.022 -0.078 0.02 -0.119v-5.27c0.001 -0.433 0.092 -0.86 0.268 -1.256s0.433 -0.75 0.754 -1.041a3.101 3.101 0 0 1 1.111 -0.646c0.412 -0.136 0.847 -0.184 1.278 -0.142 0.784 0.083 1.51 0.453 2.036 1.042a3.168 3.168 0 0 1 0.805 2.138v5.195c-0.001 0.04 0.006 0.081 0.02 0.119 0.015 0.037 0.037 0.072 0.065 0.101 0.029 0.03 0.062 0.053 0.1 0.068 0.037 0.016 0.078 0.024 0.118 0.024h1.79c0.083 0 0.162 -0.033 0.221 -0.091s0.091 -0.138 0.091 -0.221v-5.29c-0.002 -0.743 -0.154 -1.478 -0.447 -2.161 -0.293 -0.684 -0.722 -1.3 -1.26 -1.813s-1.174 -0.913 -1.87 -1.175a5.52 5.52 0 0 0 -2.182 -0.348m18.01 6.085c0 0.199 -0.175 0.362 -0.394 0.362h-8.024c0.418 1.229 1.58 2.246 2.949 2.246h3.272c0.171 0 0.306 0.139 0.306 0.306v1.793c0 0.171 -0.139 0.306 -0.306 0.306h-3.136c-2.988 0 -5.54 -2.45 -5.652 -5.432 0 -2.197 1.135 -4.209 3.164 -5.156 0.74 -0.345 1.539 -0.517 2.356 -0.517 2.866 0.024 5.206 2.239 5.44 5.046 0 0 0.02 0.795 0.024 1.045m-5.21 -3.674c-1.404 -0.134 -2.722 0.72 -3.196 2.052h5.803c-0.406 -1.101 -1.389 -1.935 -2.607 -2.052M63.514 4.104c-0.029 -0.027 -0.066 -0.041 -0.105 -0.041s-0.076 0.014 -0.104 0.041l-3.836 3.785 -3.788 -3.785c-0.029 -0.027 -0.066 -0.041 -0.105 -0.041 -0.039 0 -0.077 0.014 -0.105 0.041l-1.544 1.599c-0.027 0.028 -0.041 0.065 -0.041 0.104s0.014 0.076 0.041 0.105L57.716 9.696l-3.845 3.842c-0.027 0.028 -0.041 0.065 -0.041 0.104 0 0.039 0.014 0.077 0.041 0.105l1.515 1.504q0.026 0.027 0.06 0.043c0.023 0.01 0.048 0.015 0.073 0.015 0.024 0 0.049 -0.006 0.072 -0.015q0.035 -0.016 0.06 -0.043l3.788 -3.785 3.789 3.785c0.028 0.027 0.065 0.041 0.105 0.041 0.038 0 0.075 -0.014 0.104 -0.041l1.544 -1.533c0.027 -0.028 0.042 -0.065 0.042 -0.104 0 -0.039 -0.015 -0.076 -0.042 -0.105l-3.789 -3.784 3.846 -3.785c0.027 -0.028 0.042 -0.065 0.042 -0.104 0 -0.039 -0.015 -0.076 -0.042 -0.105zm11.65 1.603a5.648 5.648 0 0 1 1.631 3.97c0 1.121 -0.334 2.217 -0.959 3.148s-1.513 1.655 -2.551 2.08c-1.039 0.426 -2.18 0.534 -3.279 0.309s-2.107 -0.77 -2.895 -1.568a5.651 5.651 0 0 1 -1.53 -2.914 5.641 5.641 0 0 1 0.352 -3.271 5.662 5.662 0 0 1 2.117 -2.521c0.941 -0.612 2.042 -0.93 3.164 -0.916a5.658 5.658 0 0 1 3.95 1.682m-1.759 6.179c0.575 -0.605 0.895 -1.407 0.895 -2.242s-0.32 -1.636 -0.895 -2.242a3.262 3.262 0 0 0 -3.493 -0.817 3.274 3.274 0 0 0 -1.118 0.693c-0.322 0.304 -0.578 0.671 -0.753 1.078s-0.266 0.845 -0.266 1.287 0.091 0.881 0.266 1.287a3.245 3.245 0 0 0 0.753 1.078 3.264 3.264 0 0 0 1.118 0.693c0.417 0.154 0.859 0.22 1.302 0.196 0.833 -0.045 1.618 -0.407 2.192 -1.013" fill="#2853c3"/></svg>