<svg viewBox="0 0 76.8 23.808" xmlns="http://www.w3.org/2000/svg" width="240" height="74.4"><path d="M0 0h76.8v23.808H0z" opacity=".69"/><path d="M14.124 17.465H7.788v6.337h6.335z" fill="#abebf4"/><path d="M19.732 8.744H7.788v6.314h14.1V8.744z" fill="#00b3c8"/><path d="M27.384 0H7.788v6.337h19.596z" fill="#009bb5"/><path d="M6.335 8.744H0v6.336h6.335z" fill="#00b3c8"/><g fill="#fff"><path d="M39.442 8.608v3.18h6.403v3.18h-6.403v4.974h-4.111V5.429h11.376v3.156h-7.265zm13.192 0.068h-4.451V5.429H61.171v3.248h-4.428v11.242h-4.11zm19.438 11.242 -2.998 -4.497 -2.951 4.497h-4.678l5.245 -7.313 -5.041 -7.154h4.609l2.907 4.179 2.861 -4.179h4.428l-5.042 6.995 5.382 7.495h-4.722z"/></g></svg>